<svg width="79" height="35" viewBox="0 0 79 35" fill="none" xmlns="http://www.w3.org/2000/svg">
<path d="M9.53903 23.7054C8.70143 24.1109 7.60775 24.3136 6.25799 24.3136C4.49743 24.3136 3.11299 23.7961 2.10467 22.7611C1.09635 21.7261 0.592188 20.347 0.592188 18.6238C0.592188 16.7885 1.1577 15.3001 2.28873 14.1584C3.42509 13.0167 4.89755 12.4458 6.70613 12.4458C7.82648 12.4458 8.77078 12.5872 9.53903 12.87V15.3587C8.77078 14.8999 7.89584 14.6705 6.91419 14.6705C5.83652 14.6705 4.96691 15.0093 4.30537 15.6869C3.64382 16.3644 3.31305 17.282 3.31305 18.4397C3.31305 19.5494 3.62515 20.435 4.24935 21.0966C4.87355 21.7528 5.71381 22.0809 6.77015 22.0809C7.77847 22.0809 8.70143 21.8355 9.53903 21.3446V23.7054ZM16.1811 24.3136C14.5379 24.3136 13.1989 23.7801 12.1639 22.7131C11.1289 21.6407 10.6114 20.2456 10.6114 18.5278C10.6114 16.7138 11.1369 15.2467 12.1879 14.1264C13.2389 13.006 14.6313 12.4458 16.3652 12.4458C18.003 12.4458 19.3261 12.982 20.3345 14.0543C21.3481 15.1267 21.8549 16.5405 21.8549 18.2957C21.8549 20.0989 21.3294 21.5527 20.2784 22.6571C19.2328 23.7614 17.867 24.3136 16.1811 24.3136ZM16.2932 14.6705C15.3862 14.6705 14.666 15.012 14.1325 15.6949C13.599 16.3724 13.3322 17.2714 13.3322 18.3917C13.3322 19.5281 13.599 20.427 14.1325 21.0886C14.666 21.7501 15.3649 22.0809 16.2291 22.0809C17.1201 22.0809 17.827 21.7608 18.3498 21.1206C18.8727 20.475 19.1341 19.5814 19.1341 18.4397C19.1341 17.25 18.8807 16.3244 18.3738 15.6628C17.867 15.0013 17.1734 14.6705 16.2932 14.6705ZM34.0908 24.1135H31.482L26.7525 16.9032C26.4751 16.4818 26.283 16.1643 26.1763 15.9509H26.1443C26.187 16.3564 26.2083 16.9753 26.2083 17.8075V24.1135H23.7675V12.6379H26.5524L31.1059 19.6241C31.3139 19.9389 31.506 20.251 31.6821 20.5604H31.7141C31.6714 20.2936 31.65 19.7681 31.65 18.9839V12.6379H34.0908V24.1135ZM44.7742 14.7426H41.5012V24.1135H38.9083V14.7426H35.6513V12.6379H44.7742V14.7426ZM50.56 24.3136C48.9169 24.3136 47.5778 23.7801 46.5428 22.7131C45.5078 21.6407 44.9903 20.2456 44.9903 18.5278C44.9903 16.7138 45.5158 15.2467 46.5668 14.1264C47.6178 13.006 49.0102 12.4458 50.7441 12.4458C52.382 12.4458 53.705 12.982 54.7134 14.0543C55.727 15.1267 56.2338 16.5405 56.2338 18.2957C56.2338 20.0989 55.7083 21.5527 54.6573 22.6571C53.6117 23.7614 52.2459 24.3136 50.56 24.3136ZM50.6721 14.6705C49.7651 14.6705 49.0449 15.012 48.5114 15.6949C47.9779 16.3724 47.7111 17.2714 47.7111 18.3917C47.7111 19.5281 47.9779 20.427 48.5114 21.0886C49.0449 21.7501 49.7438 22.0809 50.6081 22.0809C51.499 22.0809 52.2059 21.7608 52.7287 21.1206C53.2516 20.475 53.513 19.5814 53.513 18.4397C53.513 17.25 53.2596 16.3244 52.7527 15.6628C52.2459 15.0013 51.5524 14.6705 50.6721 14.6705ZM57.6183 23.6734V21.1126C58.0824 21.502 58.5866 21.7955 59.1308 21.9929C59.6749 22.1849 60.2244 22.2809 60.7793 22.2809C61.1047 22.2809 61.3875 22.2516 61.6276 22.1929C61.873 22.1342 62.0757 22.0542 62.2357 21.9528C62.4011 21.8461 62.5238 21.7234 62.6039 21.5847C62.6839 21.4407 62.7239 21.286 62.7239 21.1206C62.7239 20.8965 62.6599 20.6964 62.5318 20.5204C62.4038 20.3443 62.2277 20.1816 62.0037 20.0322C61.7849 19.8828 61.5235 19.7388 61.2194 19.6001C60.9153 19.4614 60.5872 19.32 60.2351 19.176C59.3388 18.8025 58.6693 18.3464 58.2265 17.8075C57.789 17.2687 57.5703 16.6178 57.5703 15.8549C57.5703 15.2574 57.6903 14.7452 57.9304 14.3184C58.1705 13.8863 58.4959 13.5315 58.9067 13.2541C59.3228 12.9767 59.803 12.7739 60.3471 12.6459C60.8913 12.5125 61.4675 12.4458 62.0757 12.4458C62.6732 12.4458 63.2014 12.4832 63.6602 12.5579C64.1243 12.6272 64.5511 12.7366 64.9406 12.886V15.2787C64.7485 15.1453 64.5378 15.028 64.3084 14.9266C64.0843 14.8252 63.8523 14.7426 63.6122 14.6785C63.3721 14.6092 63.132 14.5585 62.892 14.5265C62.6572 14.4945 62.4331 14.4785 62.2197 14.4785C61.9263 14.4785 61.6596 14.5078 61.4195 14.5665C61.1794 14.6198 60.9767 14.6972 60.8113 14.7986C60.6459 14.8999 60.5179 15.0226 60.4272 15.1667C60.3365 15.3054 60.2911 15.4628 60.2911 15.6388C60.2911 15.8309 60.3418 16.0043 60.4432 16.159C60.5445 16.3084 60.6886 16.4524 60.8753 16.5911C61.062 16.7245 61.2888 16.8579 61.5555 16.9913C61.8223 17.1193 62.1237 17.2527 62.4598 17.3914C62.9186 17.5835 63.3294 17.7889 63.6922 18.0076C64.0603 18.221 64.3751 18.4637 64.6365 18.7358C64.8979 19.0079 65.098 19.32 65.2367 19.6721C65.3754 20.0189 65.4448 20.4244 65.4448 20.8885C65.4448 21.5287 65.3221 22.0675 65.0766 22.505C64.8366 22.9372 64.5085 23.2893 64.0923 23.5614C63.6762 23.8281 63.1907 24.0202 62.6359 24.1375C62.0864 24.2549 61.5048 24.3136 60.8913 24.3136C60.2618 24.3136 59.6616 24.2602 59.0908 24.1535C58.5252 24.0468 58.0344 23.8868 57.6183 23.6734ZM72.1829 24.3136C70.5397 24.3136 69.2006 23.7801 68.1656 22.7131C67.1306 21.6407 66.6131 20.2456 66.6131 18.5278C66.6131 16.7138 67.1386 15.2467 68.1896 14.1264C69.2406 13.006 70.6331 12.4458 72.367 12.4458C74.0048 12.4458 75.3279 12.982 76.3362 14.0543C77.3499 15.1267 77.8567 16.5405 77.8567 18.2957C77.8567 20.0989 77.3312 21.5527 76.2802 22.6571C75.2345 23.7614 73.8688 24.3136 72.1829 24.3136ZM72.2949 14.6705C71.388 14.6705 70.6678 15.012 70.1343 15.6949C69.6008 16.3724 69.334 17.2714 69.334 18.3917C69.334 19.5281 69.6008 20.427 70.1343 21.0886C70.6678 21.7501 71.3666 22.0809 72.2309 22.0809C73.1219 22.0809 73.8288 21.7608 74.3516 21.1206C74.8744 20.475 75.1358 19.5814 75.1358 18.4397C75.1358 17.25 74.8824 16.3244 74.3756 15.6628C73.8688 15.0013 73.1752 14.6705 72.2949 14.6705Z" fill="url(#paint0_angular_817_6998)"/>
<path d="M23.7618 32.9353H22.7493V31.1103H20.8931V32.9353H19.8837V28.4541H20.8931V30.2416H22.7493V28.4541H23.7618V32.9353ZM27.74 29.7353L26.44 33.1916C26.1275 34.0228 25.6566 34.4384 25.0275 34.4384C24.7879 34.4384 24.591 34.4113 24.4368 34.3572V33.5697C24.5681 33.6468 24.7108 33.6853 24.865 33.6853C25.1191 33.6853 25.2962 33.5655 25.3962 33.3259L25.565 32.9291L24.265 29.7353H25.3587L25.9556 31.6822C25.9931 31.803 26.0223 31.9457 26.0431 32.1103H26.0556C26.0743 31.9895 26.1087 31.8488 26.1587 31.6884L26.7618 29.7353H27.74ZM29.1368 32.5634H29.1243V34.4072H28.1368V29.7353H29.1243V30.2166H29.1368C29.3806 29.8436 29.7233 29.6572 30.165 29.6572C30.5795 29.6572 30.8993 29.7999 31.1243 30.0853C31.3514 30.3686 31.465 30.7551 31.465 31.2447C31.465 31.778 31.3327 32.2061 31.0681 32.5291C30.8056 32.852 30.4556 33.0134 30.0181 33.0134C29.6327 33.0134 29.3389 32.8634 29.1368 32.5634ZM29.1087 31.2509V31.5072C29.1087 31.728 29.167 31.9082 29.2837 32.0478C29.4004 32.1874 29.5535 32.2572 29.7431 32.2572C29.9681 32.2572 30.142 32.1707 30.265 31.9978C30.39 31.8228 30.4525 31.5759 30.4525 31.2572C30.4525 30.6947 30.2337 30.4134 29.7962 30.4134C29.5941 30.4134 29.4285 30.4905 29.2993 30.6447C29.1723 30.7968 29.1087 30.9988 29.1087 31.2509ZM34.9806 31.6166H32.8931C32.9264 32.0811 33.2191 32.3134 33.7712 32.3134C34.1233 32.3134 34.4327 32.2301 34.6993 32.0634V32.7759C34.4035 32.9343 34.0191 33.0134 33.5462 33.0134C33.0295 33.0134 32.6285 32.8707 32.3431 32.5853C32.0577 32.2978 31.915 31.8978 31.915 31.3853C31.915 30.8541 32.0691 30.4332 32.3775 30.1228C32.6858 29.8124 33.065 29.6572 33.515 29.6572C33.9816 29.6572 34.342 29.7957 34.5962 30.0728C34.8525 30.3499 34.9806 30.7259 34.9806 31.2009V31.6166ZM34.065 31.0103C34.065 30.552 33.8795 30.3228 33.5087 30.3228C33.3504 30.3228 33.2129 30.3884 33.0962 30.5197C32.9816 30.6509 32.9118 30.8145 32.8868 31.0103H34.065ZM37.6556 30.6259C37.5368 30.5613 37.3983 30.5291 37.24 30.5291C37.0254 30.5291 36.8577 30.6082 36.7368 30.7666C36.616 30.9228 36.5556 31.1363 36.5556 31.4072V32.9353H35.5681V29.7353H36.5556V30.3291H36.5681C36.7243 29.8957 37.0056 29.6791 37.4118 29.6791C37.516 29.6791 37.5973 29.6916 37.6556 29.7166V30.6259ZM43.3212 32.9353H42.3243V30.2541C42.3243 29.9645 42.3368 29.6447 42.3618 29.2947H42.3368C42.2848 29.5697 42.2379 29.7676 42.1962 29.8884L41.1462 32.9353H40.3212L39.2525 29.9197C39.2233 29.8384 39.1764 29.6301 39.1118 29.2947H39.0837C39.1108 29.7363 39.1243 30.1238 39.1243 30.4572V32.9353H38.215V28.4541H39.6931L40.6087 31.1103C40.6816 31.3228 40.7348 31.5363 40.7681 31.7509H40.7868C40.8431 31.503 40.9025 31.2874 40.965 31.1041L41.8806 28.4541H43.3212V32.9353ZM46.9056 32.9353H45.9712V32.4759H45.9587C45.7441 32.8343 45.4264 33.0134 45.0056 33.0134C44.6952 33.0134 44.4504 32.9259 44.2712 32.7509C44.0941 32.5738 44.0056 32.3384 44.0056 32.0447C44.0056 31.4238 44.3733 31.0655 45.1087 30.9697L45.9775 30.8541C45.9775 30.5041 45.7879 30.3291 45.4087 30.3291C45.0275 30.3291 44.665 30.4426 44.3212 30.6697V29.9259C44.4587 29.8551 44.6462 29.7926 44.8837 29.7384C45.1233 29.6843 45.341 29.6572 45.5368 29.6572C46.4493 29.6572 46.9056 30.1124 46.9056 31.0228V32.9353ZM45.9775 31.6353V31.4197L45.3962 31.4947C45.0754 31.5363 44.915 31.6811 44.915 31.9291C44.915 32.0416 44.9535 32.1343 45.0306 32.2072C45.1098 32.278 45.216 32.3134 45.3493 32.3134C45.5348 32.3134 45.6858 32.2499 45.8025 32.1228C45.9191 31.9936 45.9775 31.8311 45.9775 31.6353ZM49.7743 30.6259C49.6556 30.5613 49.517 30.5291 49.3587 30.5291C49.1441 30.5291 48.9764 30.6082 48.8556 30.7666C48.7348 30.9228 48.6743 31.1363 48.6743 31.4072V32.9353H47.6868V29.7353H48.6743V30.3291H48.6868C48.8431 29.8957 49.1243 29.6791 49.5306 29.6791C49.6348 29.6791 49.716 29.6916 49.7743 29.7166V30.6259ZM53.4431 32.9353H52.2587L51.2368 31.3478H51.2243V32.9353H50.2368V28.1978H51.2243V31.2134H51.2368L52.19 29.7353H53.3618L52.215 31.2384L53.4431 32.9353ZM56.5993 31.6166H54.5118C54.5452 32.0811 54.8379 32.3134 55.39 32.3134C55.742 32.3134 56.0514 32.2301 56.3181 32.0634V32.7759C56.0223 32.9343 55.6379 33.0134 55.165 33.0134C54.6483 33.0134 54.2473 32.8707 53.9618 32.5853C53.6764 32.2978 53.5337 31.8978 53.5337 31.3853C53.5337 30.8541 53.6879 30.4332 53.9962 30.1228C54.3045 29.8124 54.6837 29.6572 55.1337 29.6572C55.6004 29.6572 55.9608 29.7957 56.215 30.0728C56.4712 30.3499 56.5993 30.7259 56.5993 31.2009V31.6166ZM55.6837 31.0103C55.6837 30.552 55.4983 30.3228 55.1275 30.3228C54.9691 30.3228 54.8316 30.3884 54.715 30.5197C54.6004 30.6509 54.5306 30.8145 54.5056 31.0103H55.6837ZM59.1212 32.8978C58.9754 32.9749 58.7556 33.0134 58.4618 33.0134C57.766 33.0134 57.4181 32.652 57.4181 31.9291V30.4634H56.8993V29.7353H57.4181V29.0447L58.4025 28.7634V29.7353H59.1212V30.4634H58.4025V31.7572C58.4025 32.0905 58.5348 32.2572 58.7993 32.2572C58.9035 32.2572 59.0108 32.227 59.1212 32.1666V32.8978Z" fill="white"/>
<path d="M50.7649 11.3353C52.158 7.83188 56.1328 6.10347 59.6452 7.47374C58.2521 10.9771 54.2773 12.7055 50.7649 11.3353Z" fill="url(#paint1_linear_817_6998)"/>
<path d="M48.9223 11.1347C46.5296 7.40073 47.6037 2.41691 51.322 0C53.7146 3.73392 52.6405 8.71774 48.9223 11.1347Z" fill="url(#paint2_linear_817_6998)"/>
<defs>
<radialGradient id="paint0_angular_817_6998" cx="0" cy="0" r="1" gradientUnits="userSpaceOnUse" gradientTransform="translate(39.5 24.5202) rotate(-178.3) scale(33.1526 12.7531)">
<stop stop-color="#C03BC4"/>
<stop offset="0.270833" stop-color="#0078D4"/>
<stop offset="0.510417" stop-color="#49C5B1"/>
<stop offset="0.760417" stop-color="#FFA38B"/>
<stop offset="1" stop-color="#C03BC4"/>
</radialGradient>
<linearGradient id="paint1_linear_817_6998" x1="52.9291" y1="12.1877" x2="55.8971" y2="5.95127" gradientUnits="userSpaceOnUse">
<stop stop-color="#238777"/>
<stop offset="0.473958" stop-color="#49C5B1"/>
<stop offset="1" stop-color="#D4EC8E"/>
</linearGradient>
<linearGradient id="paint2_linear_817_6998" x1="49.3288" y1="11.1347" x2="51.0372" y2="0.142214" gradientUnits="userSpaceOnUse">
<stop stop-color="#238777"/>
<stop offset="0.473958" stop-color="#49C5B1"/>
<stop offset="1" stop-color="#D4EC8E"/>
</linearGradient>
</defs>
</svg>
