<svg width="24" height="24" viewBox="0 0 24 24" fill="none" xmlns="http://www.w3.org/2000/svg">
<g id="svgexport-6 (4) 1">
<g id="Group">
<g id="_x30_1._Facebook">
<path id="Icon_11_" d="M9.69604 13.2481C9.62404 13.2481 8.04004 13.2481 7.32004 13.2481C6.93604 13.2481 6.81604 13.1041 6.81604 12.7441C6.81604 11.7841 6.81604 10.8001 6.81604 9.84007C6.81604 9.45607 6.96004 9.33607 7.32004 9.33607H9.69604C9.69604 9.26407 9.69604 7.87207 9.69604 7.22407C9.69604 6.26407 9.86404 5.35207 10.344 4.51207C10.848 3.64807 11.568 3.07207 12.48 2.73607C13.08 2.52007 13.68 2.42407 14.328 2.42407H16.68C17.016 2.42407 17.16 2.56807 17.16 2.90407V5.64007C17.16 5.97607 17.016 6.12007 16.68 6.12007C16.032 6.12007 15.384 6.12007 14.736 6.14407C14.088 6.14407 13.752 6.45607 13.752 7.12807C13.728 7.84807 13.752 8.54407 13.752 9.28807H16.536C16.92 9.28807 17.064 9.43207 17.064 9.81607V12.7201C17.064 13.1041 16.944 13.2241 16.536 13.2241C15.672 13.2241 13.824 13.2241 13.752 13.2241V21.0481C13.752 21.4561 13.632 21.6001 13.2 21.6001C12.192 21.6001 11.208 21.6001 10.2 21.6001C9.84004 21.6001 9.69604 21.4561 9.69604 21.0961C9.69604 18.5761 9.69604 13.3201 9.69604 13.2481Z" fill="white"/>
</g>
</g>
</g>
</svg>
