<svg width="80" height="36" viewBox="0 0 80 36" fill="none" xmlns="http://www.w3.org/2000/svg">
<path d="M9.53903 24.2166C8.70143 24.6221 7.60775 24.8248 6.25799 24.8248C4.49743 24.8248 3.11299 24.3073 2.10467 23.2723C1.09635 22.2373 0.592188 20.8582 0.592188 19.135C0.592188 17.2998 1.1577 15.8113 2.28873 14.6696C3.42509 13.5279 4.89755 12.9571 6.70613 12.9571C7.82648 12.9571 8.77078 13.0984 9.53903 13.3812V15.87C8.77078 15.4112 7.89584 15.1818 6.91419 15.1818C5.83652 15.1818 4.96691 15.5205 4.30537 16.1981C3.64382 16.8756 3.31305 17.7933 3.31305 18.951C3.31305 20.0606 3.62515 20.9463 4.24935 21.6078C4.87355 22.264 5.71381 22.5921 6.77015 22.5921C7.77847 22.5921 8.70143 22.3467 9.53903 21.8559V24.2166ZM16.1811 24.8248C14.5379 24.8248 13.1989 24.2913 12.1639 23.2243C11.1289 22.152 10.6114 20.7569 10.6114 19.039C10.6114 17.2251 11.1369 15.7579 12.1879 14.6376C13.2389 13.5172 14.6313 12.9571 16.3652 12.9571C18.003 12.9571 19.3261 13.4932 20.3345 14.5656C21.3481 15.6379 21.8549 17.0517 21.8549 18.8069C21.8549 20.6101 21.3294 22.0639 20.2784 23.1683C19.2328 24.2726 17.867 24.8248 16.1811 24.8248ZM16.2932 15.1818C15.3862 15.1818 14.666 15.5232 14.1325 16.2061C13.599 16.8836 13.3322 17.7826 13.3322 18.9029C13.3322 20.0393 13.599 20.9383 14.1325 21.5998C14.666 22.2613 15.3649 22.5921 16.2291 22.5921C17.1201 22.5921 17.827 22.272 18.3498 21.6318C18.8727 20.9863 19.1341 20.0927 19.1341 18.951C19.1341 17.7612 18.8807 16.8356 18.3738 16.1741C17.867 15.5125 17.1734 15.1818 16.2932 15.1818ZM34.0908 24.6248H31.482L26.7525 17.4145C26.4751 16.993 26.283 16.6756 26.1763 16.4622H26.1443C26.187 16.8676 26.2083 17.4865 26.2083 18.3188V24.6248H23.7675V13.1491H26.5524L31.1059 20.1353C31.3139 20.4501 31.506 20.7622 31.6821 21.0716H31.7141C31.6714 20.8049 31.65 20.2794 31.65 19.4951V13.1491H34.0908V24.6248ZM44.7742 15.2538H41.5012V24.6248H38.9083V15.2538H35.6513V13.1491H44.7742V15.2538ZM50.56 24.8248C48.9169 24.8248 47.5778 24.2913 46.5428 23.2243C45.5078 22.152 44.9903 20.7569 44.9903 19.039C44.9903 17.2251 45.5158 15.7579 46.5668 14.6376C47.6178 13.5172 49.0102 12.9571 50.7441 12.9571C52.382 12.9571 53.705 13.4932 54.7134 14.5656C55.727 15.6379 56.2338 17.0517 56.2338 18.8069C56.2338 20.6101 55.7083 22.0639 54.6573 23.1683C53.6117 24.2726 52.2459 24.8248 50.56 24.8248ZM50.6721 15.1818C49.7651 15.1818 49.0449 15.5232 48.5114 16.2061C47.9779 16.8836 47.7111 17.7826 47.7111 18.9029C47.7111 20.0393 47.9779 20.9383 48.5114 21.5998C49.0449 22.2613 49.7438 22.5921 50.6081 22.5921C51.499 22.5921 52.2059 22.272 52.7287 21.6318C53.2516 20.9863 53.513 20.0927 53.513 18.951C53.513 17.7612 53.2596 16.8356 52.7527 16.1741C52.2459 15.5125 51.5524 15.1818 50.6721 15.1818ZM57.6183 24.1846V21.6238C58.0824 22.0133 58.5866 22.3067 59.1308 22.5041C59.6749 22.6961 60.2244 22.7922 60.7793 22.7922C61.1047 22.7922 61.3875 22.7628 61.6276 22.7041C61.873 22.6455 62.0757 22.5654 62.2357 22.4641C62.4011 22.3574 62.5238 22.2347 62.6039 22.096C62.6839 21.9519 62.7239 21.7972 62.7239 21.6318C62.7239 21.4077 62.6599 21.2077 62.5318 21.0316C62.4038 20.8556 62.2277 20.6928 62.0037 20.5435C61.7849 20.3941 61.5235 20.25 61.2194 20.1113C60.9153 19.9726 60.5872 19.8312 60.2351 19.6872C59.3388 19.3137 58.6693 18.8576 58.2265 18.3188C57.789 17.7799 57.5703 17.129 57.5703 16.3661C57.5703 15.7686 57.6903 15.2565 57.9304 14.8296C58.1705 14.3975 58.4959 14.0427 58.9067 13.7653C59.3228 13.4879 59.803 13.2852 60.3471 13.1571C60.8913 13.0237 61.4675 12.9571 62.0757 12.9571C62.6732 12.9571 63.2014 12.9944 63.6602 13.0691C64.1243 13.1384 64.5511 13.2478 64.9406 13.3972V15.79C64.7485 15.6566 64.5378 15.5392 64.3084 15.4378C64.0843 15.3365 63.8523 15.2538 63.6122 15.1898C63.3721 15.1204 63.132 15.0697 62.892 15.0377C62.6572 15.0057 62.4331 14.9897 62.2197 14.9897C61.9263 14.9897 61.6596 15.019 61.4195 15.0777C61.1794 15.1311 60.9767 15.2084 60.8113 15.3098C60.6459 15.4112 60.5179 15.5339 60.4272 15.6779C60.3365 15.8166 60.2911 15.974 60.2911 16.1501C60.2911 16.3421 60.3418 16.5155 60.4432 16.6702C60.5445 16.8196 60.6886 16.9637 60.8753 17.1024C61.062 17.2357 61.2888 17.3691 61.5555 17.5025C61.8223 17.6305 62.1237 17.7639 62.4598 17.9026C62.9186 18.0947 63.3294 18.3001 63.6922 18.5188C64.0603 18.7322 64.3751 18.975 64.6365 19.247C64.8979 19.5191 65.098 19.8312 65.2367 20.1833C65.3754 20.5301 65.4448 20.9356 65.4448 21.3997C65.4448 22.0399 65.3221 22.5788 65.0766 23.0162C64.8366 23.4484 64.5085 23.8005 64.0923 24.0726C63.6762 24.3393 63.1907 24.5314 62.6359 24.6488C62.0864 24.7661 61.5048 24.8248 60.8913 24.8248C60.2618 24.8248 59.6616 24.7715 59.0908 24.6648C58.5252 24.5581 58.0344 24.398 57.6183 24.1846ZM72.1829 24.8248C70.5397 24.8248 69.2006 24.2913 68.1656 23.2243C67.1306 22.152 66.6131 20.7569 66.6131 19.039C66.6131 17.2251 67.1386 15.7579 68.1896 14.6376C69.2406 13.5172 70.6331 12.9571 72.367 12.9571C74.0048 12.9571 75.3279 13.4932 76.3362 14.5656C77.3499 15.6379 77.8567 17.0517 77.8567 18.8069C77.8567 20.6101 77.3312 22.0639 76.2802 23.1683C75.2345 24.2726 73.8688 24.8248 72.1829 24.8248ZM72.2949 15.1818C71.388 15.1818 70.6678 15.5232 70.1343 16.2061C69.6008 16.8836 69.334 17.7826 69.334 18.9029C69.334 20.0393 69.6008 20.9383 70.1343 21.5998C70.6678 22.2613 71.3666 22.5921 72.2309 22.5921C73.1219 22.5921 73.8288 22.272 74.3516 21.6318C74.8744 20.9863 75.1358 20.0927 75.1358 18.951C75.1358 17.7612 74.8824 16.8356 74.3756 16.1741C73.8688 15.5125 73.1752 15.1818 72.2949 15.1818Z" fill="white"/>
<path d="M23.7928 33.4832H22.7803V31.6582H20.9241V33.4832H19.9147V29.0019H20.9241V30.7894H22.7803V29.0019H23.7928V33.4832ZM27.771 30.2832L26.471 33.7394C26.1585 34.5707 25.6876 34.9863 25.0585 34.9863C24.8189 34.9863 24.622 34.9592 24.4678 34.905V34.1175C24.5991 34.1946 24.7418 34.2332 24.896 34.2332C25.1501 34.2332 25.3272 34.1134 25.4272 33.8738L25.596 33.4769L24.296 30.2832H25.3897L25.9866 32.23C26.0241 32.3509 26.0533 32.4936 26.0741 32.6582H26.0866C26.1053 32.5373 26.1397 32.3967 26.1897 32.2363L26.7928 30.2832H27.771ZM29.1678 33.1113H29.1553V34.955H28.1678V30.2832H29.1553V30.7644H29.1678C29.4116 30.3915 29.7543 30.205 30.196 30.205C30.6106 30.205 30.9303 30.3477 31.1553 30.6332C31.3824 30.9165 31.496 31.3029 31.496 31.7925C31.496 32.3259 31.3637 32.754 31.0991 33.0769C30.8366 33.3998 30.4866 33.5613 30.0491 33.5613C29.6637 33.5613 29.3699 33.4113 29.1678 33.1113ZM29.1397 31.7988V32.055C29.1397 32.2759 29.1981 32.4561 29.3147 32.5957C29.4314 32.7352 29.5845 32.805 29.7741 32.805C29.9991 32.805 30.1731 32.7186 30.296 32.5457C30.421 32.3707 30.4835 32.1238 30.4835 31.805C30.4835 31.2425 30.2647 30.9613 29.8272 30.9613C29.6251 30.9613 29.4595 31.0384 29.3303 31.1925C29.2033 31.3446 29.1397 31.5467 29.1397 31.7988ZM35.0116 32.1644H32.9241C32.9574 32.629 33.2501 32.8613 33.8022 32.8613C34.1543 32.8613 34.4637 32.7779 34.7303 32.6113V33.3238C34.4345 33.4821 34.0501 33.5613 33.5772 33.5613C33.0606 33.5613 32.6595 33.4186 32.3741 33.1332C32.0887 32.8457 31.946 32.4457 31.946 31.9332C31.946 31.4019 32.1001 30.9811 32.4085 30.6707C32.7168 30.3602 33.096 30.205 33.546 30.205C34.0126 30.205 34.3731 30.3436 34.6272 30.6207C34.8835 30.8977 35.0116 31.2738 35.0116 31.7488V32.1644ZM34.096 31.5582C34.096 31.0998 33.9106 30.8707 33.5397 30.8707C33.3814 30.8707 33.2439 30.9363 33.1272 31.0675C33.0126 31.1988 32.9428 31.3623 32.9178 31.5582H34.096ZM37.6866 31.1738C37.5678 31.1092 37.4293 31.0769 37.271 31.0769C37.0564 31.0769 36.8887 31.1561 36.7678 31.3144C36.647 31.4707 36.5866 31.6842 36.5866 31.955V33.4832H35.5991V30.2832H36.5866V30.8769H36.5991C36.7553 30.4436 37.0366 30.2269 37.4428 30.2269C37.547 30.2269 37.6283 30.2394 37.6866 30.2644V31.1738ZM43.3522 33.4832H42.3553V30.8019C42.3553 30.5123 42.3678 30.1925 42.3928 29.8425H42.3678C42.3158 30.1175 42.2689 30.3154 42.2272 30.4363L41.1772 33.4832H40.3522L39.2835 30.4675C39.2543 30.3863 39.2074 30.1779 39.1428 29.8425H39.1147C39.1418 30.2842 39.1553 30.6717 39.1553 31.005V33.4832H38.246V29.0019H39.7241L40.6397 31.6582C40.7126 31.8707 40.7658 32.0842 40.7991 32.2988H40.8178C40.8741 32.0509 40.9335 31.8352 40.996 31.6519L41.9116 29.0019H43.3522V33.4832ZM46.9366 33.4832H46.0022V33.0238H45.9897C45.7751 33.3821 45.4574 33.5613 45.0366 33.5613C44.7262 33.5613 44.4814 33.4738 44.3022 33.2988C44.1251 33.1217 44.0366 32.8863 44.0366 32.5925C44.0366 31.9717 44.4043 31.6134 45.1397 31.5175L46.0085 31.4019C46.0085 31.0519 45.8189 30.8769 45.4397 30.8769C45.0585 30.8769 44.696 30.9904 44.3522 31.2175V30.4738C44.4897 30.4029 44.6772 30.3404 44.9147 30.2863C45.1543 30.2321 45.372 30.205 45.5678 30.205C46.4803 30.205 46.9366 30.6602 46.9366 31.5707V33.4832ZM46.0085 32.1832V31.9675L45.4272 32.0425C45.1064 32.0842 44.946 32.229 44.946 32.4769C44.946 32.5894 44.9845 32.6821 45.0616 32.755C45.1408 32.8259 45.247 32.8613 45.3803 32.8613C45.5658 32.8613 45.7168 32.7977 45.8335 32.6707C45.9501 32.5415 46.0085 32.379 46.0085 32.1832ZM49.8053 31.1738C49.6866 31.1092 49.5481 31.0769 49.3897 31.0769C49.1751 31.0769 49.0074 31.1561 48.8866 31.3144C48.7658 31.4707 48.7053 31.6842 48.7053 31.955V33.4832H47.7178V30.2832H48.7053V30.8769H48.7178C48.8741 30.4436 49.1553 30.2269 49.5616 30.2269C49.6658 30.2269 49.747 30.2394 49.8053 30.2644V31.1738ZM53.4741 33.4832H52.2897L51.2678 31.8957H51.2553V33.4832H50.2678V28.7457H51.2553V31.7613H51.2678L52.221 30.2832H53.3928L52.246 31.7863L53.4741 33.4832ZM56.6303 32.1644H54.5428C54.5762 32.629 54.8689 32.8613 55.421 32.8613C55.7731 32.8613 56.0824 32.7779 56.3491 32.6113V33.3238C56.0533 33.4821 55.6689 33.5613 55.196 33.5613C54.6793 33.5613 54.2783 33.4186 53.9928 33.1332C53.7074 32.8457 53.5647 32.4457 53.5647 31.9332C53.5647 31.4019 53.7189 30.9811 54.0272 30.6707C54.3356 30.3602 54.7147 30.205 55.1647 30.205C55.6314 30.205 55.9918 30.3436 56.246 30.6207C56.5022 30.8977 56.6303 31.2738 56.6303 31.7488V32.1644ZM55.7147 31.5582C55.7147 31.0998 55.5293 30.8707 55.1585 30.8707C55.0001 30.8707 54.8626 30.9363 54.746 31.0675C54.6314 31.1988 54.5616 31.3623 54.5366 31.5582H55.7147ZM59.1522 33.4457C59.0064 33.5227 58.7866 33.5613 58.4928 33.5613C57.797 33.5613 57.4491 33.1998 57.4491 32.4769V31.0113H56.9303V30.2832H57.4491V29.5925L58.4335 29.3113V30.2832H59.1522V31.0113H58.4335V32.305C58.4335 32.6384 58.5658 32.805 58.8303 32.805C58.9345 32.805 59.0418 32.7748 59.1522 32.7144V33.4457Z" fill="url(#paint0_linear_830_246)"/>
<path d="M50.8463 11.8561C52.2417 8.34621 56.2228 6.61461 59.7409 7.98741C58.3455 11.4973 54.3644 13.2289 50.8463 11.8561Z" fill="url(#paint1_linear_830_246)"/>
<path d="M49.0006 11.6552C46.6041 7.91441 47.68 2.92138 51.4042 0.5C53.8006 4.24082 52.7248 9.23385 49.0006 11.6552Z" fill="url(#paint2_linear_830_246)"/>
<defs>
<linearGradient id="paint0_linear_830_246" x1="22.031" y1="37.0477" x2="44.407" y2="7.12516" gradientUnits="userSpaceOnUse">
<stop stop-color="#49C5B1"/>
<stop offset="1" stop-color="#D4EC8E"/>
</linearGradient>
<linearGradient id="paint1_linear_830_246" x1="53.014" y1="12.7101" x2="55.9879" y2="6.46269" gradientUnits="userSpaceOnUse">
<stop stop-color="#238777"/>
<stop offset="0.473958" stop-color="#49C5B1"/>
<stop offset="1" stop-color="#D4EC8E"/>
</linearGradient>
<linearGradient id="paint2_linear_830_246" x1="49.4078" y1="11.6552" x2="51.1197" y2="0.642604" gradientUnits="userSpaceOnUse">
<stop stop-color="#238777"/>
<stop offset="0.473958" stop-color="#49C5B1"/>
<stop offset="1" stop-color="#D4EC8E"/>
</linearGradient>
</defs>
</svg>
