<svg width="190" height="29" viewBox="0 0 190 29" fill="none" xmlns="http://www.w3.org/2000/svg">
<path d="M9.53909 24.5919C8.70149 24.9973 7.60781 25.2001 6.25805 25.2001C4.49749 25.2001 3.11305 24.6826 2.10473 23.6476C1.09641 22.6126 0.592249 21.2335 0.592249 19.5103C0.592249 17.675 1.15776 16.1865 2.28879 15.0448C3.42515 13.9031 4.89762 13.3323 6.70619 13.3323C7.82654 13.3323 8.77084 13.4737 9.53909 13.7564V16.2452C8.77084 15.7864 7.8959 15.557 6.91425 15.557C5.83658 15.557 4.96697 15.8958 4.30543 16.5733C3.64388 17.2509 3.31311 18.1685 3.31311 19.3262C3.31311 20.4359 3.62521 21.3215 4.24941 21.983C4.87361 22.6393 5.71387 22.9674 6.77021 22.9674C7.77853 22.9674 8.70149 22.7219 9.53909 22.2311V24.5919ZM16.1812 25.2001C14.538 25.2001 13.1989 24.6666 12.1639 23.5996C11.1289 22.5272 10.6114 21.1321 10.6114 19.4142C10.6114 17.6003 11.1369 16.1332 12.1879 15.0128C13.2389 13.8925 14.6314 13.3323 16.3653 13.3323C18.0031 13.3323 19.3262 13.8685 20.3345 14.9408C21.3482 16.0131 21.855 17.4269 21.855 19.1822C21.855 20.9854 21.3295 22.4392 20.2785 23.5435C19.2328 24.6479 17.8671 25.2001 16.1812 25.2001ZM16.2932 15.557C15.3863 15.557 14.666 15.8984 14.1325 16.5813C13.599 17.2589 13.3323 18.1578 13.3323 19.2782C13.3323 20.4145 13.599 21.3135 14.1325 21.975C14.666 22.6366 15.3649 22.9674 16.2292 22.9674C17.1202 22.9674 17.8271 22.6473 18.3499 22.0071C18.8727 21.3615 19.1341 20.4679 19.1341 19.3262C19.1341 18.1365 18.8807 17.2109 18.3739 16.5493C17.8671 15.8878 17.1735 15.557 16.2932 15.557ZM34.0909 25H31.482L26.7525 17.7897C26.4751 17.3682 26.2831 17.0508 26.1764 16.8374H26.1444C26.187 17.2429 26.2084 17.8617 26.2084 18.694V25H23.7676V13.5244H26.5525L31.1059 20.5106C31.314 20.8253 31.5061 21.1374 31.6821 21.4469H31.7141C31.6714 21.1801 31.6501 20.6546 31.6501 19.8704V13.5244H34.0909V25ZM44.7743 15.629H41.5012V25H38.9084V15.629H35.6514V13.5244H44.7743V15.629ZM50.5601 25.2001C48.9169 25.2001 47.5778 24.6666 46.5428 23.5996C45.5078 22.5272 44.9903 21.1321 44.9903 19.4142C44.9903 17.6003 45.5158 16.1332 46.5668 15.0128C47.6178 13.8925 49.0103 13.3323 50.7442 13.3323C52.382 13.3323 53.7051 13.8685 54.7134 14.9408C55.7271 16.0131 56.2339 17.4269 56.2339 19.1822C56.2339 20.9854 55.7084 22.4392 54.6574 23.5435C53.6117 24.6479 52.246 25.2001 50.5601 25.2001ZM50.6721 15.557C49.7652 15.557 49.045 15.8984 48.5115 16.5813C47.978 17.2589 47.7112 18.1578 47.7112 19.2782C47.7112 20.4145 47.978 21.3135 48.5115 21.975C49.045 22.6366 49.7438 22.9674 50.6081 22.9674C51.4991 22.9674 52.206 22.6473 52.7288 22.0071C53.2516 21.3615 53.513 20.4679 53.513 19.3262C53.513 18.1365 53.2596 17.2109 52.7528 16.5493C52.246 15.8878 51.5524 15.557 50.6721 15.557ZM57.6183 24.5599V21.999C58.0825 22.3885 58.5867 22.6819 59.1308 22.8793C59.675 23.0714 60.2245 23.1674 60.7793 23.1674C61.1048 23.1674 61.3875 23.1381 61.6276 23.0794C61.873 23.0207 62.0758 22.9407 62.2358 22.8393C62.4012 22.7326 62.5239 22.6099 62.6039 22.4712C62.684 22.3272 62.724 22.1724 62.724 22.0071C62.724 21.783 62.6599 21.5829 62.5319 21.4069C62.4039 21.2308 62.2278 21.0681 62.0037 20.9187C61.785 20.7693 61.5236 20.6253 61.2195 20.4866C60.9154 20.3479 60.5873 20.2065 60.2352 20.0624C59.3389 19.689 58.6693 19.2328 58.2265 18.694C57.7891 18.1552 57.5703 17.5043 57.5703 16.7414C57.5703 16.1439 57.6904 15.6317 57.9304 15.2049C58.1705 14.7728 58.496 14.418 58.9068 14.1406C59.3229 13.8631 59.803 13.6604 60.3472 13.5324C60.8914 13.399 61.4676 13.3323 62.0758 13.3323C62.6733 13.3323 63.2014 13.3696 63.6603 13.4443C64.1244 13.5137 64.5512 13.6231 64.9407 13.7724V16.1652C64.7486 16.0318 64.5379 15.9145 64.3085 15.8131C64.0844 15.7117 63.8523 15.629 63.6122 15.565C63.3722 15.4957 63.1321 15.445 62.892 15.413C62.6573 15.3809 62.4332 15.3649 62.2198 15.3649C61.9264 15.3649 61.6596 15.3943 61.4195 15.453C61.1795 15.5063 60.9767 15.5837 60.8114 15.685C60.646 15.7864 60.5179 15.9091 60.4272 16.0532C60.3365 16.1919 60.2912 16.3493 60.2912 16.5253C60.2912 16.7174 60.3419 16.8908 60.4432 17.0455C60.5446 17.1949 60.6887 17.3389 60.8754 17.4776C61.0621 17.611 61.2888 17.7444 61.5556 17.8777C61.8223 18.0058 62.1238 18.1392 62.4599 18.2779C62.9187 18.4699 63.3295 18.6753 63.6923 18.8941C64.0604 19.1075 64.3752 19.3502 64.6366 19.6223C64.898 19.8944 65.0981 20.2065 65.2368 20.5586C65.3755 20.9054 65.4448 21.3108 65.4448 21.775C65.4448 22.4152 65.3221 22.954 65.0767 23.3915C64.8366 23.8236 64.5085 24.1757 64.0924 24.4478C63.6763 24.7146 63.1908 24.9066 62.6359 25.024C62.0864 25.1414 61.5049 25.2001 60.8914 25.2001C60.2618 25.2001 59.6617 25.1467 59.0908 25.04C58.5253 24.9333 58.0345 24.7733 57.6183 24.5599ZM72.183 25.2001C70.5398 25.2001 69.2007 24.6666 68.1657 23.5996C67.1307 22.5272 66.6132 21.1321 66.6132 19.4142C66.6132 17.6003 67.1387 16.1332 68.1897 15.0128C69.2407 13.8925 70.6331 13.3323 72.367 13.3323C74.0049 13.3323 75.328 13.8685 76.3363 14.9408C77.3499 16.0131 77.8568 17.4269 77.8568 19.1822C77.8568 20.9854 77.3313 22.4392 76.2803 23.5435C75.2346 24.6479 73.8688 25.2001 72.183 25.2001ZM72.295 15.557C71.388 15.557 70.6678 15.8984 70.1343 16.5813C69.6008 17.2589 69.3341 18.1578 69.3341 19.2782C69.3341 20.4145 69.6008 21.3135 70.1343 21.975C70.6678 22.6366 71.3667 22.9674 72.231 22.9674C73.1219 22.9674 73.8288 22.6473 74.3517 22.0071C74.8745 21.3615 75.1359 20.4679 75.1359 19.3262C75.1359 18.1365 74.8825 17.2109 74.3757 16.5493C73.8688 15.8878 73.1753 15.557 72.295 15.557Z" fill="white"/>
<path d="M50.765 11.3353C52.1581 7.83188 56.1329 6.10347 59.6453 7.47374C58.2522 10.9771 54.2774 12.7055 50.765 11.3353Z" fill="url(#paint0_linear_1152_14298)"/>
<path d="M48.9223 11.1347C46.5296 7.40073 47.6037 2.41691 51.322 0C53.7146 3.73392 52.6405 8.71774 48.9223 11.1347Z" fill="url(#paint1_linear_1152_14298)"/>
<path d="M100.977 25H98.4453V20.4375H93.8047V25H91.2812V13.7969H93.8047V18.2656H98.4453V13.7969H100.977V25ZM110.922 17L107.672 25.6406C106.891 27.7188 105.714 28.7578 104.141 28.7578C103.542 28.7578 103.049 28.6901 102.664 28.5547V26.5859C102.992 26.7786 103.349 26.875 103.734 26.875C104.37 26.875 104.812 26.5755 105.062 25.9766L105.484 24.9844L102.234 17H104.969L106.461 21.8672C106.555 22.1693 106.628 22.526 106.68 22.9375H106.711C106.758 22.6354 106.844 22.2839 106.969 21.8828L108.477 17H110.922ZM114.414 24.0703H114.383V28.6797H111.914V17H114.383V18.2031H114.414C115.023 17.2708 115.88 16.8047 116.984 16.8047C118.021 16.8047 118.82 17.1615 119.383 17.875C119.951 18.5833 120.234 19.5495 120.234 20.7734C120.234 22.1068 119.904 23.1771 119.242 23.9844C118.586 24.7917 117.711 25.1953 116.617 25.1953C115.654 25.1953 114.919 24.8203 114.414 24.0703ZM114.344 20.7891V21.4297C114.344 21.9818 114.49 22.4323 114.781 22.7812C115.073 23.1302 115.456 23.3047 115.93 23.3047C116.492 23.3047 116.927 23.0885 117.234 22.6562C117.547 22.2188 117.703 21.6016 117.703 20.8047C117.703 19.3984 117.156 18.6953 116.062 18.6953C115.557 18.6953 115.143 18.888 114.82 19.2734C114.503 19.6536 114.344 20.1589 114.344 20.7891ZM129.023 21.7031H123.805C123.888 22.8646 124.62 23.4453 126 23.4453C126.88 23.4453 127.654 23.237 128.32 22.8203V24.6016C127.581 24.9974 126.62 25.1953 125.438 25.1953C124.146 25.1953 123.143 24.8385 122.43 24.125C121.716 23.4062 121.359 22.4062 121.359 21.125C121.359 19.7969 121.745 18.7448 122.516 17.9688C123.286 17.1927 124.234 16.8047 125.359 16.8047C126.526 16.8047 127.427 17.151 128.062 17.8438C128.703 18.5365 129.023 19.4766 129.023 20.6641V21.7031ZM126.734 20.1875C126.734 19.0417 126.271 18.4688 125.344 18.4688C124.948 18.4688 124.604 18.6328 124.312 18.9609C124.026 19.2891 123.852 19.6979 123.789 20.1875H126.734ZM135.711 19.2266C135.414 19.0651 135.068 18.9844 134.672 18.9844C134.135 18.9844 133.716 19.1823 133.414 19.5781C133.112 19.9688 132.961 20.5026 132.961 21.1797V25H130.492V17H132.961V18.4844H132.992C133.383 17.401 134.086 16.8594 135.102 16.8594C135.362 16.8594 135.565 16.8906 135.711 16.9531V19.2266ZM149.875 25H147.383V18.2969C147.383 17.5729 147.414 16.7734 147.477 15.8984H147.414C147.284 16.5859 147.167 17.0807 147.062 17.3828L144.438 25H142.375L139.703 17.4609C139.63 17.2578 139.513 16.737 139.352 15.8984H139.281C139.349 17.0026 139.383 17.9714 139.383 18.8047V25H137.109V13.7969H140.805L143.094 20.4375C143.276 20.9688 143.409 21.5026 143.492 22.0391H143.539C143.68 21.4193 143.828 20.8802 143.984 20.4219L146.273 13.7969H149.875V25ZM158.836 25H156.5V23.8516H156.469C155.932 24.7474 155.138 25.1953 154.086 25.1953C153.31 25.1953 152.698 24.9766 152.25 24.5391C151.807 24.0964 151.586 23.5078 151.586 22.7734C151.586 21.2214 152.505 20.3255 154.344 20.0859L156.516 19.7969C156.516 18.9219 156.042 18.4844 155.094 18.4844C154.141 18.4844 153.234 18.7682 152.375 19.3359V17.4766C152.719 17.2995 153.188 17.1432 153.781 17.0078C154.38 16.8724 154.924 16.8047 155.414 16.8047C157.695 16.8047 158.836 17.9427 158.836 20.2188V25ZM156.516 21.75V21.2109L155.062 21.3984C154.26 21.5026 153.859 21.8646 153.859 22.4844C153.859 22.7656 153.956 22.9974 154.148 23.1797C154.346 23.3568 154.612 23.4453 154.945 23.4453C155.409 23.4453 155.786 23.2865 156.078 22.9688C156.37 22.6458 156.516 22.2396 156.516 21.75ZM166.008 19.2266C165.711 19.0651 165.365 18.9844 164.969 18.9844C164.432 18.9844 164.013 19.1823 163.711 19.5781C163.409 19.9688 163.258 20.5026 163.258 21.1797V25H160.789V17H163.258V18.4844H163.289C163.68 17.401 164.383 16.8594 165.398 16.8594C165.659 16.8594 165.862 16.8906 166.008 16.9531V19.2266ZM175.18 25H172.219L169.664 21.0312H169.633V25H167.164V13.1562H169.633V20.6953H169.664L172.047 17H174.977L172.109 20.7578L175.18 25ZM183.07 21.7031H177.852C177.935 22.8646 178.667 23.4453 180.047 23.4453C180.927 23.4453 181.701 23.237 182.367 22.8203V24.6016C181.628 24.9974 180.667 25.1953 179.484 25.1953C178.193 25.1953 177.19 24.8385 176.477 24.125C175.763 23.4062 175.406 22.4062 175.406 21.125C175.406 19.7969 175.792 18.7448 176.562 17.9688C177.333 17.1927 178.281 16.8047 179.406 16.8047C180.573 16.8047 181.474 17.151 182.109 17.8438C182.75 18.5365 183.07 19.4766 183.07 20.6641V21.7031ZM180.781 20.1875C180.781 19.0417 180.318 18.4688 179.391 18.4688C178.995 18.4688 178.651 18.6328 178.359 18.9609C178.073 19.2891 177.898 19.6979 177.836 20.1875H180.781ZM189.375 24.9062C189.01 25.099 188.461 25.1953 187.727 25.1953C185.987 25.1953 185.117 24.2917 185.117 22.4844V18.8203H183.82V17H185.117V15.2734L187.578 14.5703V17H189.375V18.8203H187.578V22.0547C187.578 22.888 187.909 23.3047 188.57 23.3047C188.831 23.3047 189.099 23.2292 189.375 23.0781V24.9062Z" fill="url(#paint2_linear_1152_14298)"/>
<defs>
<linearGradient id="paint0_linear_1152_14298" x1="52.9293" y1="12.1877" x2="55.8972" y2="5.95127" gradientUnits="userSpaceOnUse">
<stop stop-color="#238777"/>
<stop offset="0.473958" stop-color="#49C5B1"/>
<stop offset="1" stop-color="#D4EC8E"/>
</linearGradient>
<linearGradient id="paint1_linear_1152_14298" x1="49.3288" y1="11.1347" x2="51.0372" y2="0.142214" gradientUnits="userSpaceOnUse">
<stop stop-color="#238777"/>
<stop offset="0.473958" stop-color="#49C5B1"/>
<stop offset="1" stop-color="#D4EC8E"/>
</linearGradient>
<linearGradient id="paint2_linear_1152_14298" x1="96.572" y1="32.6507" x2="147.664" y2="-40.5525" gradientUnits="userSpaceOnUse">
<stop stop-color="#49C5B1"/>
<stop offset="1" stop-color="#D4EC8E"/>
</linearGradient>
</defs>
</svg>
