<svg width="24" height="25" viewBox="0 0 24 25" fill="none" xmlns="http://www.w3.org/2000/svg">
<g id="svgexport-6 (5) 1" clip-path="url(#clip0_762_94026)">
<g id="Group">
<path id="Vector" d="M23.9975 7.06849C23.9412 5.79103 23.7346 4.91279 23.4387 4.15179C23.1334 3.34399 22.6637 2.62078 22.0484 2.01957C21.4472 1.409 20.7192 0.934565 19.9208 0.634051C19.1554 0.338124 18.2817 0.131544 17.0042 0.0752201C15.7172 0.0141267 15.3087 0 12.0445 0C8.78029 0 8.37172 0.0141267 7.08949 0.0704501C5.81203 0.126773 4.93379 0.333537 4.17297 0.629281C3.36499 0.934565 2.64178 1.40423 2.04057 2.01957C1.43 2.62078 0.955744 3.34876 0.655047 4.1472C0.35912 4.91279 0.15254 5.78626 0.0962162 7.06372C0.0351228 8.35072 0.0209961 8.7593 0.0209961 12.0235C0.0209961 15.2877 0.0351228 15.6962 0.0914462 16.9785C0.14777 18.2559 0.354533 19.1342 0.65046 19.8952C0.955744 20.703 1.43 21.4262 2.04057 22.0274C2.64178 22.638 3.36976 23.1124 4.1682 23.4129C4.93379 23.7088 5.80726 23.9154 7.0849 23.9717C8.36695 24.0283 8.77571 24.0422 12.0399 24.0422C15.3041 24.0422 15.7127 24.0283 16.9949 23.9717C18.2723 23.9154 19.1506 23.7088 19.9114 23.4129C21.5272 22.7882 22.8046 21.5108 23.4293 19.8952C23.7251 19.1296 23.9318 18.2559 23.9882 16.9785C24.0445 15.6962 24.0586 15.2877 24.0586 12.0235C24.0586 8.7593 24.0538 8.35072 23.9975 7.06849ZM21.8325 16.8845C21.7807 18.0587 21.5835 18.6928 21.4191 19.1155C21.0151 20.1629 20.1839 20.9941 19.1365 21.3981C18.7138 21.5625 18.0751 21.7597 16.9055 21.8113C15.6374 21.8678 15.2571 21.8817 12.0492 21.8817C8.84138 21.8817 8.45629 21.8678 7.19278 21.8113C6.01861 21.7597 5.38456 21.5625 4.96186 21.3981C4.44064 21.2055 3.9662 20.9002 3.58111 20.501C3.18189 20.1111 2.87661 19.6415 2.68397 19.1202C2.51959 18.6975 2.32237 18.0587 2.27081 16.8893C2.21431 15.6212 2.20036 15.2407 2.20036 12.0328C2.20036 8.82498 2.21431 8.43989 2.27081 7.17655C2.32237 6.00239 2.51959 5.36833 2.68397 4.94563C2.87661 4.42423 3.18189 3.94998 3.58588 3.5647C3.97556 3.16548 4.44523 2.8602 4.96663 2.66775C5.38933 2.50336 6.02815 2.30614 7.19755 2.2544C8.46565 2.19808 8.84616 2.18395 12.0538 2.18395C15.2665 2.18395 15.6468 2.19808 16.9103 2.2544C18.0845 2.30614 18.7185 2.50336 19.1412 2.66775C19.6624 2.8602 20.1369 3.16548 20.522 3.5647C20.9212 3.95456 21.2265 4.42423 21.4191 4.94563C21.5835 5.36833 21.7807 6.00697 21.8325 7.17655C21.8888 8.44466 21.9029 8.82498 21.9029 12.0328C21.9029 15.2407 21.8888 15.6164 21.8325 16.8845Z" fill="white"/>
<path id="Vector_2" d="M12.0445 5.84741C8.63486 5.84741 5.86841 8.61368 5.86841 12.0235C5.86841 15.4334 8.63486 18.1997 12.0445 18.1997C15.4544 18.1997 18.2207 15.4334 18.2207 12.0235C18.2207 8.61368 15.4544 5.84741 12.0445 5.84741ZM12.0445 16.0298C9.83251 16.0298 8.03823 14.2357 8.03823 12.0235C8.03823 9.81133 9.83251 8.01724 12.0445 8.01724C14.2567 8.01724 16.0508 9.81133 16.0508 12.0235C16.0508 14.2357 14.2567 16.0298 12.0445 16.0298Z" fill="white"/>
<path id="Vector_3" d="M19.9068 5.60322C19.9068 6.39945 19.2612 7.04506 18.4648 7.04506C17.6686 7.04506 17.0229 6.39945 17.0229 5.60322C17.0229 4.8068 17.6686 4.16138 18.4648 4.16138C19.2612 4.16138 19.9068 4.8068 19.9068 5.60322Z" fill="white"/>
</g>
</g>
<defs>
<clipPath id="clip0_762_94026">
<rect width="24" height="24.0423" fill="white"/>
</clipPath>
</defs>
</svg>
