<svg width="25" height="24" viewBox="0 0 25 24" fill="none" xmlns="http://www.w3.org/2000/svg">
<g id="svgexport-6 (7) 1">
<g id="Group">
<g id="_x31_0.Linkedin">
<path id="Vector" d="M22.0999 21.5999V14.5679C22.0999 11.1119 21.3559 8.47192 17.3239 8.47192C15.3799 8.47192 14.0839 9.52792 13.5559 10.5359H13.5079V8.78392H9.69189V21.5999H13.6759V15.2399C13.6759 13.5599 13.9879 11.9519 16.0519 11.9519C18.0919 11.9519 18.1159 13.8479 18.1159 15.3359V21.5759H22.0999V21.5999Z" fill="white"/>
<path id="Vector_2" d="M3.21191 8.78394H7.19591V21.5999H3.21191V8.78394Z" fill="white"/>
<path id="Vector_3" d="M5.2039 2.3999C3.9319 2.3999 2.8999 3.4319 2.8999 4.7039C2.8999 5.9759 3.9319 7.0319 5.2039 7.0319C6.4759 7.0319 7.5079 5.9759 7.5079 4.7039C7.5079 3.4319 6.4759 2.3999 5.2039 2.3999Z" fill="white"/>
</g>
</g>
</g>
</svg>
