<svg width="187" height="32" viewBox="0 0 187 32" fill="none" xmlns="http://www.w3.org/2000/svg">
<path d="M9.53903 26.0919C8.70143 26.4973 7.60775 26.7001 6.25799 26.7001C4.49743 26.7001 3.11299 26.1826 2.10467 25.1476C1.09635 24.1126 0.592188 22.7335 0.592188 21.0103C0.592188 19.175 1.1577 17.6865 2.28873 16.5448C3.42509 15.4031 4.89755 14.8323 6.70613 14.8323C7.82648 14.8323 8.77078 14.9737 9.53903 15.2564V17.7452C8.77078 17.2864 7.89584 17.057 6.91419 17.057C5.83652 17.057 4.96691 17.3958 4.30537 18.0733C3.64382 18.7509 3.31305 19.6685 3.31305 20.8262C3.31305 21.9359 3.62515 22.8215 4.24935 23.483C4.87355 24.1393 5.71381 24.4674 6.77015 24.4674C7.77847 24.4674 8.70143 24.2219 9.53903 23.7311V26.0919ZM16.1811 26.7001C14.5379 26.7001 13.1989 26.1666 12.1639 25.0996C11.1289 24.0272 10.6114 22.6321 10.6114 20.9142C10.6114 19.1003 11.1369 17.6332 12.1879 16.5128C13.2389 15.3925 14.6313 14.8323 16.3652 14.8323C18.003 14.8323 19.3261 15.3685 20.3345 16.4408C21.3481 17.5131 21.8549 18.9269 21.8549 20.6822C21.8549 22.4854 21.3294 23.9392 20.2784 25.0435C19.2328 26.1479 17.867 26.7001 16.1811 26.7001ZM16.2932 17.057C15.3862 17.057 14.666 17.3984 14.1325 18.0813C13.599 18.7589 13.3322 19.6578 13.3322 20.7782C13.3322 21.9145 13.599 22.8135 14.1325 23.475C14.666 24.1366 15.3649 24.4674 16.2291 24.4674C17.1201 24.4674 17.827 24.1473 18.3498 23.5071C18.8727 22.8615 19.1341 21.9679 19.1341 20.8262C19.1341 19.6365 18.8807 18.7109 18.3738 18.0493C17.867 17.3878 17.1734 17.057 16.2932 17.057ZM34.0908 26.5H31.482L26.7525 19.2897C26.4751 18.8682 26.283 18.5508 26.1763 18.3374H26.1443C26.187 18.7429 26.2083 19.3617 26.2083 20.194V26.5H23.7675V15.0244H26.5524L31.1059 22.0106C31.3139 22.3253 31.506 22.6374 31.6821 22.9469H31.7141C31.6714 22.6801 31.65 22.1546 31.65 21.3704V15.0244H34.0908V26.5ZM44.7742 17.129H41.5012V26.5H38.9083V17.129H35.6513V15.0244H44.7742V17.129ZM50.56 26.7001C48.9169 26.7001 47.5778 26.1666 46.5428 25.0996C45.5078 24.0272 44.9903 22.6321 44.9903 20.9142C44.9903 19.1003 45.5158 17.6332 46.5668 16.5128C47.6178 15.3925 49.0102 14.8323 50.7441 14.8323C52.382 14.8323 53.705 15.3685 54.7134 16.4408C55.727 17.5131 56.2338 18.9269 56.2338 20.6822C56.2338 22.4854 55.7083 23.9392 54.6573 25.0435C53.6117 26.1479 52.2459 26.7001 50.56 26.7001ZM50.6721 17.057C49.7651 17.057 49.0449 17.3984 48.5114 18.0813C47.9779 18.7589 47.7111 19.6578 47.7111 20.7782C47.7111 21.9145 47.9779 22.8135 48.5114 23.475C49.0449 24.1366 49.7438 24.4674 50.6081 24.4674C51.499 24.4674 52.2059 24.1473 52.7287 23.5071C53.2516 22.8615 53.513 21.9679 53.513 20.8262C53.513 19.6365 53.2596 18.7109 52.7527 18.0493C52.2459 17.3878 51.5524 17.057 50.6721 17.057ZM57.6183 26.0599V23.499C58.0824 23.8885 58.5866 24.1819 59.1308 24.3793C59.6749 24.5714 60.2244 24.6674 60.7793 24.6674C61.1047 24.6674 61.3875 24.6381 61.6276 24.5794C61.873 24.5207 62.0757 24.4407 62.2357 24.3393C62.4011 24.2326 62.5238 24.1099 62.6039 23.9712C62.6839 23.8272 62.7239 23.6724 62.7239 23.5071C62.7239 23.283 62.6599 23.0829 62.5318 22.9069C62.4038 22.7308 62.2277 22.5681 62.0037 22.4187C61.7849 22.2693 61.5235 22.1253 61.2194 21.9866C60.9153 21.8479 60.5872 21.7065 60.2351 21.5624C59.3388 21.189 58.6693 20.7328 58.2265 20.194C57.789 19.6552 57.5703 19.0043 57.5703 18.2414C57.5703 17.6439 57.6903 17.1317 57.9304 16.7049C58.1705 16.2728 58.4959 15.918 58.9067 15.6406C59.3228 15.3631 59.803 15.1604 60.3471 15.0324C60.8913 14.899 61.4675 14.8323 62.0757 14.8323C62.6732 14.8323 63.2014 14.8696 63.6602 14.9443C64.1243 15.0137 64.5511 15.1231 64.9406 15.2724V17.6652C64.7485 17.5318 64.5378 17.4145 64.3084 17.3131C64.0843 17.2117 63.8523 17.129 63.6122 17.065C63.3721 16.9957 63.132 16.945 62.892 16.913C62.6572 16.8809 62.4331 16.8649 62.2197 16.8649C61.9263 16.8649 61.6596 16.8943 61.4195 16.953C61.1794 17.0063 60.9767 17.0837 60.8113 17.185C60.6459 17.2864 60.5179 17.4091 60.4272 17.5532C60.3365 17.6919 60.2911 17.8493 60.2911 18.0253C60.2911 18.2174 60.3418 18.3908 60.4432 18.5455C60.5445 18.6949 60.6886 18.8389 60.8753 18.9776C61.062 19.111 61.2888 19.2444 61.5555 19.3777C61.8223 19.5058 62.1237 19.6392 62.4598 19.7779C62.9186 19.9699 63.3294 20.1753 63.6922 20.3941C64.0603 20.6075 64.3751 20.8502 64.6365 21.1223C64.8979 21.3944 65.098 21.7065 65.2367 22.0586C65.3754 22.4054 65.4448 22.8108 65.4448 23.275C65.4448 23.9152 65.3221 24.454 65.0766 24.8915C64.8366 25.3236 64.5085 25.6757 64.0923 25.9478C63.6762 26.2146 63.1907 26.4066 62.6359 26.524C62.0864 26.6414 61.5048 26.7001 60.8913 26.7001C60.2618 26.7001 59.6616 26.6467 59.0908 26.54C58.5252 26.4333 58.0344 26.2733 57.6183 26.0599ZM72.1829 26.7001C70.5397 26.7001 69.2006 26.1666 68.1656 25.0996C67.1306 24.0272 66.6131 22.6321 66.6131 20.9142C66.6131 19.1003 67.1386 17.6332 68.1896 16.5128C69.2406 15.3925 70.6331 14.8323 72.367 14.8323C74.0048 14.8323 75.3279 15.3685 76.3362 16.4408C77.3499 17.5131 77.8567 18.9269 77.8567 20.6822C77.8567 22.4854 77.3312 23.9392 76.2802 25.0435C75.2345 26.1479 73.8688 26.7001 72.1829 26.7001ZM72.2949 17.057C71.388 17.057 70.6678 17.3984 70.1343 18.0813C69.6008 18.7589 69.334 19.6578 69.334 20.7782C69.334 21.9145 69.6008 22.8135 70.1343 23.475C70.6678 24.1366 71.3666 24.4674 72.2309 24.4674C73.1219 24.4674 73.8288 24.1473 74.3516 23.5071C74.8744 22.8615 75.1358 21.9679 75.1358 20.8262C75.1358 19.6365 74.8824 18.7109 74.3756 18.0493C73.8688 17.3878 73.1752 17.057 72.2949 17.057Z" fill="white"/>
<path d="M50.765 12.8353C52.1581 9.33188 56.1329 7.60347 59.6453 8.97374C58.2522 12.4771 54.2774 14.2055 50.765 12.8353Z" fill="url(#paint0_linear_1439_6904)"/>
<path d="M48.9223 12.6347C46.5296 8.90073 47.6037 3.91691 51.322 1.5C53.7146 5.23392 52.6405 10.2177 48.9223 12.6347Z" fill="url(#paint1_linear_1439_6904)"/>
<path d="M97.9766 26.5H95.4453V21.9375H90.8047V26.5H88.2812V15.2969H90.8047V19.7656H95.4453V15.2969H97.9766V26.5ZM107.922 18.5L104.672 27.1406C103.891 29.2188 102.714 30.2578 101.141 30.2578C100.542 30.2578 100.049 30.1901 99.6641 30.0547V28.0859C99.9922 28.2786 100.349 28.375 100.734 28.375C101.37 28.375 101.812 28.0755 102.062 27.4766L102.484 26.4844L99.2344 18.5H101.969L103.461 23.3672C103.555 23.6693 103.628 24.026 103.68 24.4375H103.711C103.758 24.1354 103.844 23.7839 103.969 23.3828L105.477 18.5H107.922ZM111.414 25.5703H111.383V30.1797H108.914V18.5H111.383V19.7031H111.414C112.023 18.7708 112.88 18.3047 113.984 18.3047C115.021 18.3047 115.82 18.6615 116.383 19.375C116.951 20.0833 117.234 21.0495 117.234 22.2734C117.234 23.6068 116.904 24.6771 116.242 25.4844C115.586 26.2917 114.711 26.6953 113.617 26.6953C112.654 26.6953 111.919 26.3203 111.414 25.5703ZM111.344 22.2891V22.9297C111.344 23.4818 111.49 23.9323 111.781 24.2812C112.073 24.6302 112.456 24.8047 112.93 24.8047C113.492 24.8047 113.927 24.5885 114.234 24.1562C114.547 23.7188 114.703 23.1016 114.703 22.3047C114.703 20.8984 114.156 20.1953 113.062 20.1953C112.557 20.1953 112.143 20.388 111.82 20.7734C111.503 21.1536 111.344 21.6589 111.344 22.2891ZM126.023 23.2031H120.805C120.888 24.3646 121.62 24.9453 123 24.9453C123.88 24.9453 124.654 24.737 125.32 24.3203V26.1016C124.581 26.4974 123.62 26.6953 122.438 26.6953C121.146 26.6953 120.143 26.3385 119.43 25.625C118.716 24.9062 118.359 23.9062 118.359 22.625C118.359 21.2969 118.745 20.2448 119.516 19.4688C120.286 18.6927 121.234 18.3047 122.359 18.3047C123.526 18.3047 124.427 18.651 125.062 19.3438C125.703 20.0365 126.023 20.9766 126.023 22.1641V23.2031ZM123.734 21.6875C123.734 20.5417 123.271 19.9688 122.344 19.9688C121.948 19.9688 121.604 20.1328 121.312 20.4609C121.026 20.7891 120.852 21.1979 120.789 21.6875H123.734ZM132.711 20.7266C132.414 20.5651 132.068 20.4844 131.672 20.4844C131.135 20.4844 130.716 20.6823 130.414 21.0781C130.112 21.4688 129.961 22.0026 129.961 22.6797V26.5H127.492V18.5H129.961V19.9844H129.992C130.383 18.901 131.086 18.3594 132.102 18.3594C132.362 18.3594 132.565 18.3906 132.711 18.4531V20.7266ZM146.617 26.5H144.156V21.9375C144.156 20.776 143.729 20.1953 142.875 20.1953C142.469 20.1953 142.138 20.3698 141.883 20.7188C141.628 21.0677 141.5 21.5026 141.5 22.0234V26.5H139.031V21.8906C139.031 20.7604 138.612 20.1953 137.773 20.1953C137.352 20.1953 137.013 20.362 136.758 20.6953C136.508 21.0286 136.383 21.4818 136.383 22.0547V26.5H133.914V18.5H136.383V19.75H136.414C136.669 19.3229 137.026 18.9766 137.484 18.7109C137.948 18.4401 138.453 18.3047 139 18.3047C140.13 18.3047 140.904 18.8021 141.32 19.7969C141.93 18.8021 142.826 18.3047 144.008 18.3047C145.747 18.3047 146.617 19.3776 146.617 21.5234V26.5ZM155.227 26.5H152.891V25.3516H152.859C152.323 26.2474 151.529 26.6953 150.477 26.6953C149.701 26.6953 149.089 26.4766 148.641 26.0391C148.198 25.5964 147.977 25.0078 147.977 24.2734C147.977 22.7214 148.896 21.8255 150.734 21.5859L152.906 21.2969C152.906 20.4219 152.432 19.9844 151.484 19.9844C150.531 19.9844 149.625 20.2682 148.766 20.8359V18.9766C149.109 18.7995 149.578 18.6432 150.172 18.5078C150.771 18.3724 151.315 18.3047 151.805 18.3047C154.086 18.3047 155.227 19.4427 155.227 21.7188V26.5ZM152.906 23.25V22.7109L151.453 22.8984C150.651 23.0026 150.25 23.3646 150.25 23.9844C150.25 24.2656 150.346 24.4974 150.539 24.6797C150.737 24.8568 151.003 24.9453 151.336 24.9453C151.799 24.9453 152.177 24.7865 152.469 24.4688C152.76 24.1458 152.906 23.7396 152.906 23.25ZM162.398 20.7266C162.102 20.5651 161.755 20.4844 161.359 20.4844C160.823 20.4844 160.404 20.6823 160.102 21.0781C159.799 21.4688 159.648 22.0026 159.648 22.6797V26.5H157.18V18.5H159.648V19.9844H159.68C160.07 18.901 160.773 18.3594 161.789 18.3594C162.049 18.3594 162.253 18.3906 162.398 18.4531V20.7266ZM171.57 26.5H168.609L166.055 22.5312H166.023V26.5H163.555V14.6562H166.023V22.1953H166.055L168.438 18.5H171.367L168.5 22.2578L171.57 26.5ZM179.461 23.2031H174.242C174.326 24.3646 175.057 24.9453 176.438 24.9453C177.318 24.9453 178.091 24.737 178.758 24.3203V26.1016C178.018 26.4974 177.057 26.6953 175.875 26.6953C174.583 26.6953 173.581 26.3385 172.867 25.625C172.154 24.9062 171.797 23.9062 171.797 22.625C171.797 21.2969 172.182 20.2448 172.953 19.4688C173.724 18.6927 174.672 18.3047 175.797 18.3047C176.964 18.3047 177.865 18.651 178.5 19.3438C179.141 20.0365 179.461 20.9766 179.461 22.1641V23.2031ZM177.172 21.6875C177.172 20.5417 176.708 19.9688 175.781 19.9688C175.385 19.9688 175.042 20.1328 174.75 20.4609C174.464 20.7891 174.289 21.1979 174.227 21.6875H177.172ZM185.766 26.4062C185.401 26.599 184.852 26.6953 184.117 26.6953C182.378 26.6953 181.508 25.7917 181.508 23.9844V20.3203H180.211V18.5H181.508V16.7734L183.969 16.0703V18.5H185.766V20.3203H183.969V23.5547C183.969 24.388 184.299 24.8047 184.961 24.8047C185.221 24.8047 185.49 24.7292 185.766 24.5781V26.4062Z" fill="url(#paint2_linear_1439_6904)"/>
<defs>
<linearGradient id="paint0_linear_1439_6904" x1="52.9293" y1="13.6877" x2="55.8972" y2="7.45127" gradientUnits="userSpaceOnUse">
<stop stop-color="#238777"/>
<stop offset="0.473958" stop-color="#49C5B1"/>
<stop offset="1" stop-color="#D4EC8E"/>
</linearGradient>
<linearGradient id="paint1_linear_1439_6904" x1="49.3288" y1="12.6347" x2="51.0372" y2="1.64221" gradientUnits="userSpaceOnUse">
<stop stop-color="#238777"/>
<stop offset="0.473958" stop-color="#49C5B1"/>
<stop offset="1" stop-color="#D4EC8E"/>
</linearGradient>
<linearGradient id="paint2_linear_1439_6904" x1="93.572" y1="34.1507" x2="144.664" y2="-39.0525" gradientUnits="userSpaceOnUse">
<stop stop-color="#49C5B1"/>
<stop offset="1" stop-color="#D4EC8E"/>
</linearGradient>
</defs>
</svg>
